<?xml version="1.0"?>
<svg xmlns:rdf="http://www.w3.org/1999/02/22-rdf-syntax-ns#" xmlns="http://www.w3.org/2000/svg" xmlns:cc="http://web.resource.org/cc/" xmlns:xlink="http://www.w3.org/1999/xlink" xmlns:dc="http://purl.org/dc/elements/1.1/" xmlns:svg="http://www.w3.org/2000/svg" id="old_pocketwatch_xA0_Image_1_" xml:space="preserve" viewBox="0 0 323.266 402.319" version="1.1" x="0px" y="0px" enable-background="new 0 0 323.266 402.319">
<g clip-rule="evenodd" fill-rule="evenodd">
	<path d="m112.22 393.98l1.391 0.29s7.941-5.971 8.927-7.478 1.682-7.13 0.522-7.13-4-0.927-4.406 0.58-5.681 7.014-5.681 7.014l-2.087 4.231 1.34 2.5z" fill="#C3A204"/>
		<path d="m193.21 53.332c2.345-13.671 14.293-11.913 11.2-26.4-6-28.108-79.092-26.292-79.2 4.8-0.025 7.145 6.43 13.714 8.8 15.2 3.941 2.471 14.118 2.089 12.8 8-1.129 5.068-18.475-2.791-21.6-5.6-8.396-7.548-8.925-26.403 0-34.4 21.14-18.943 85.58-17.169 88 15.2 0.94 12.631-8.81 21.831-20 23.2z" fill="#C3A204"/>
		<path d="m182.01 44.532c-7.054-2.546-19.807 0.607-24.8-4 9.19-0.947 21.24-1.171 24.8 4z"/>
		<path d="m177.21 58.132c1.83 1.777 5.148-1.746 8.8-0.8 0.834 3.737-4.212 4.716-0.8 6.4-4.75 6.817-14.241 6.022-24.8 5.6 1.241-4.092 11.066 0.399 13.6-2.4-2.396-1.371-10.949 1.556-14.4-0.8-0.721 0.711-0.064 2.436-3.2 2.4 1.879-3.187-3.626-2.96-4-8 8.203-0.747 14.966 1.501 21.6 0-3.664-1.936-11.764 0.564-13.6-3.2 4.696-0.53 12.955 0.276 19.2-0.8-0.35 0.984-1.03 1.643-2.4 1.6z"/>
		<path d="m154.81 73.332c7.935 1.741 17.724 1.34 24 0.8-0.755 3.779-7.738 1.329-10.4 3.2-0.018 1.884 1.378 2.355 0.8 4.8 17.376-3.701 22.868 5.547 21.601 22.4-7.377-2.49-3.124-16.61-11.2-18.4-5.094 4.476-1.591 12.639-2.4 18.4-2.388 0.972-5.118 1.597-7.2 0.8 1.582-11.449-2.776-16.957-4.8-24.8-6.021-0.378-14.113 1.313-16-3.2 2.966-3.08 11.506 3.808 17.6 0-3.27-2.066-11.51 0.841-12-3.998z" fill="#C3A204"/>
		<path d="m146.01 85.332c3.648 1.305-0.579 5.512 1.6 8-1.707-0.96-4.357-0.976-4.8-3.2-0.14-2.809 2.7-2.631 3.2-4.8z" fill="#C3A204"/>
		<path d="m139.61 86.132c-1.373 1.294-1.987 3.346-1.6 6.4h-4c0.26-3.742 2.89-5.104 5.6-6.4z" fill="#C3A204"/>
		<path d="m129.21 86.932c-1.216 3.917 0.265 7.69 4 8.8-3.175 2.812-7.298-1.009-12.8 1.6-0.645-3.311 1.228-4.105 4-4 0.58-2.447-1.38-2.353-0.8-4.8 2.53 0.131 2.67-2.126 5.6-1.6z" fill="#C3A204"/>
		<path d="m115.61 90.932c1.441 1.7 0.966 8.819 5.6 9.6-5.478 2.522-9.439 6.561-18.4 5.6-0.339-1.672 0.548-2.118 0.8-3.2-1.672-0.339-2.118 0.548-3.2 0.8 0.016 2.384-0.075 4.875 2.4 4.8-2.122 3.212-8.015 2.652-9.6 6.4-2.631-2.685 2.587-4.306 4-5.6 1.511-6.755 5.251-11.282 9.6-15.2 2.568-0.701 1.659 2.075 3.2 2.4 3.14-0.595 4.3-3.161 5.6-5.598z" fill="#C3A204"/>
		<path d="m89.209 110.13c-0.072-2.989-0.897-2.28 0-4.8-1.672-0.339-2.118 0.548-3.2 0.8-0.7 3.9 2.719 3.682 4 5.6-0.165 4.437-6.726 4.688-10.4 3.2-1.248 4.715 3.585 3.348 5.6 4.8-12.19 6.477-19.018 18.315-28.8 27.2-7.093-3.342 1.337-12.485 4.8-15.2 0.138-2.004-1.792-1.942-2.4-3.2 1.115-8.703 7.795-11.188 14.4-16 1.515 3.464 1.5 6.362 0.8 10.4 3.807-3.394 2.696-11.704 5.6-16 5.833-3.234 11.272-6.861 18.4-8.8-2.297 4.64-2.065 11.8-8.8 12zm-28 28c4.375-2.909 11.511-11.308 6.4-18.4-0.122 8.15-4.968 11.57-6.4 18.4z" fill="#C3A204"/>
		<path d="m164.41 99.732c1.237 1.163 0.704 4.096 0.8 6.4-2.545 0.134-5.89 1.875-8 0 1.44-3.09 2.31-6.755 7.2-6.398z" fill="#C3A204"/>
		<path d="m156.41 100.53c0.057 3.257-2.61 3.79-1.6 8-4.948-0.404-8.749 3.687-11.2-0.8 2.19-4.47 6.61-6.72 12.8-7.2z" fill="#C3A204"/>
		<path d="m143.61 103.73c-1.367 2.732-3.03 3.39-1.6 7.2-2.856 1.144-5.157 2.843-8.8 3.2-0.354-0.712-0.703-1.431-1.6-1.6 0.73-5.78 5.65-11.25 12-8.8z" fill="#C3A204"/>
		<path d="m130.01 106.93c-1.676 3.937-0.959 4.692 0 8.8-3.892 1.174-5.943 4.19-12 3.2 2.24-5.76 4.56-11.44 12-12z" fill="#C3A204"/>
		<path d="m119.61 110.93c-2.042 3.374-5.712 6.346-3.2 12-3.123 1.863-9.805 3.808-14.4 1.6 3.23-7.17 8.57-12.23 17.6-13.6z" fill="#C3A204"/>
		<path d="m181.21 114.13c3.021 3.36 0.2 10.264 0 15.2-5.12-2.85-2.95-11.71 0-15.2z" fill="#F1E5C8"/>
		<path d="m187.61 114.13c3.025 3.201-0.383 13.356 0 19.2-3.85-4.18-0.84-12.95 0-19.2z" fill="#F1E5C8"/>
		<path d="m100.41 118.93c3.761 1.426-1.066 3.662 0 7.2 0.596 1.804 4.487 0.313 6.4 0.8-2.688 5.578-8.864 7.669-16 8.8-0.96-6.66 2.975-15.08 9.6-16.8z" fill="#C3A204"/>
		<path d="m67.609 119.73c5.111 7.092-2.025 15.491-6.4 18.4 1.432-6.83 6.278-10.25 6.4-18.4z"/>
		<path d="m230.81 147.73c4.149-6.784 10.018-11.849 12-20.8 3.481-0.815 3.678 1.655 5.6 2.4-3.628 6.772-8.742 12.058-11.2 20-3.54 0.88-3.98-1.35-6.4-1.6z"/>
		<path d="m89.209 127.73c0.797 4.53-2.397 5.07-1.6 9.6 0.753 3.125 4.036 0.68 6.4 0.8-3.78 4.487-8.787 7.747-16 8.8 1.231-8.9 2.452-17.81 11.2-19.2z" fill="#C3A204"/>
		<path d="m173.21 128.53c2.229 0.703 2.653 3.213 3.2 5.6h-4.8c-0.47-2.87 0.93-3.87 1.6-5.6z" fill="#F1E5C8"/>
		<path d="m119.61 130.93c5.254 3.013 6.149 10.384 8.8 16-6.7-1.97-13.4-7.34-8.8-16z" fill="#F1E5C8"/>
		<path d="m114.81 133.33c2.206 1.042 1.599 4.324 0.8 6.4-6.13-0.33-4.55-4.74-0.8-6.4z" fill="#F1E5C8"/>
		<path d="m76.41 136.53c2.77 3.869-1.613 7.43-0.8 12 1.009 2.173 4.254 1.529 5.6 0 0.523 5.067-6.359 9.632-12.8 10.4-3.793-10.94 2.532-18.1 8-22.4z" fill="#C3A204"/>
		<path d="m144.41 143.73c5.604 3.996 4.32 14.88 13.6 15.2-4.617 28.446 16.133 47.942 19.2 71.2-13.148-19.651-16.045-49.555-32-66.4 0.49-7.42-0.63-13.24-0.8-20z" fill="#F1E5C8"/>
		<path d="m118.01 148.53c2.419 0.514 4.617 1.25 4.8 4-2.462-0.596-1.538 2.196-4 1.6-1.1-1.03-0.79-3.47-0.8-5.6z" fill="#F1E5C8"/>
		<path d="m63.609 149.33c0.93-0.13 1.423 0.177 1.6 0.8 2.436 3.562-1.643 8.668 1.6 11.2 2.75 0.35 4.484-0.316 6.4-0.8-2.072 6.461-7.856 9.21-13.6 12-4.649-7.86 0.072-18.73 4-23.2z" fill="#C3A204"/>
		<path d="m193.21 156.53c0.649 3.316-2.329 3.003-3.2 4.8-2.249 0.116-2.307-1.959-2.399-4 1.03-1.1 3.47-0.79 5.6-0.8z"/>
		<path d="m54.81 162.13c1.523 5.888 1.425 18.308 9.6 9.6 0.75 6.891-6.515 12.679-12.8 15.2-3.697-9.48-3.536-19.14 3.2-24.8z" fill="#C3A204"/>
		<path d="m269.21 178.13c8.023-2.111 15.323-4.944 19.2-11.2 4.349 2.851 6.383 8.018 8 13.6-8.279 2.121-13.478 7.322-20 11.2-1.87-5.06-6.41-7.46-7.2-13.6zm5.6 7.2c6.69-2.642 13.054-5.613 17.6-10.4-4.97-1.6-15.45 3.97-17.6 10.4z"/>
		<path d="m210.01 167.73c1.688 2.169-1.814 1.991 0 4.8-4.2-0.467-6.057 1.41-10.399 0.8-0.466-2.865 2.367-2.432 4.8-2.4 0.427-1.152-3.117-1.952-0.8-2.4 1.16-1.23 4.09-0.7 6.4-0.8z"/>
		<path d="m292.41 174.93c-4.546 4.787-10.909 7.758-17.6 10.4 2.15-6.43 12.63-12 17.6-10.4z" fill="#F1E5C8"/>
		<path d="m201.21 174.13c-0.049 3.151-4.257 2.143-4 5.6-9.27-0.19-4.54-8.22 4-5.6z"/>
		<path d="m46.009 176.53c4.328 2.356-0.528 9.955 3.2 13.6 4.468 0.202 5.304-3.229 8.8-4-1.311 8.556-5.518 14.215-11.2 18.4-6.852-5.23-6.886-22.61-0.8-28z" fill="#C3A204"/>
		<path d="m127.61 178.13v4.8c-5.37 1.84-5.37-6.64 0-4.8z"/>
		<path d="m71.609 178.93c2.682-0.549 2.924 1.342 3.2 3.2h-4c0.622-0.71 0.86-1.8 0.8-3.2z" fill="#F1E5C8"/>
		<path d="m87.609 189.33c0.383 2.517-1.139 3.127-1.6 4.8-2.005-0.662-2.53-2.803-4-4 0.015-2.32 4.522-1.89 5.6-0.8z" fill="#F1E5C8"/>
		<path d="m38.81 192.53c3.234 3.699 0.592 13.274 5.6 15.2 4.167 0.402 4.974-5.816 8-4-1.736 7.863-4.156 15.044-11.2 17.601-4.289-9.03-9.159-18.75-2.4-28.8z" fill="#C3A204"/>
		<path d="m228.41 192.53c2.167 0.232 5.925-1.125 4.8 2.4-1.83-2.22-4.99 1.85-4.8-2.4z"/>
		<path d="m134.01 194.13h2.4c-0.714 3.054 1.306 5.106 0 6.4h-4.8c-0.49-3.43 2.6-3.26 2.4-6.4z"/>
		<path d="m14.809 195.73c1.6 2.987 5.355 14.746-1.6 14.4 3.051-3.52-0.822-9.71 1.6-14.4z"/>
		<path d="m217.21 199.73c-0.896 2.52-0.072 1.812 0 4.8-1.928-0.328-1.739 1.461-4 0.8-0.34-3.54 1.33-5.06 4-5.6z"/>
		<path d="m121.21 201.33c-1.676 4.99-2.846 10.488-10.4 9.6 1.42-5.24 5.16-8.17 10.4-9.6z"/>
		<path d="m214.01 206.13h4c1.47 3.33 4.24 5.36 8 6.399-0.885 2.508-0.516 2.256 1.601 3.2-0.728 1.674-2.361 2.439-4.8 2.4-1.531-4.069-5.355-5.846-8.801-8v-4z"/>
		<path d="m186.81 207.73h3.199c-0.257 3.457 3.951 2.449 4 5.601-3.42 1.98-6.97-1.83-7.2-5.6z"/>
		<path d="m150.01 210.13c1.435-0.102 1.688 0.979 3.2 0.8 1.364 4.298-3.067 2.8-2.4 6.4h-4c0.2-3.26 2.07-4.86 3.2-7.2z"/>
		<path d="m33.209 210.93c3.287 2.847 4.594 7.673 5.6 12.8 1.135-0.068 2.265-0.132 2.4 0.8 3.755-0.244 3.558-4.441 7.2-4.8-0.187 8.346-1.911 15.155-8 17.601-5.513-5.95-11.226-15.61-7.2-26.4z" fill="#C3A204"/>
		<path d="m107.61 211.73h7.2c0.68 6.993-0.362 13.474-8.8 10.4-0.78-4.77 1.88-6.11 1.6-10.4z"/>
		<path d="m247.61 220.53c2.475-0.074 2.384 2.416 2.399 4.801-4.08 1.58-3.73-3.37-2.4-4.8z"/>
		<path d="m7.609 221.33c3.974 0.292 1.866 6.667 4 8.8 3.907 0.974 4.579-1.288 5.6-3.2 2.617 0.316 1.946 3.92 2.4 6.4-7.182 1.3-14.242-2.92-12-12z"/>
		<path d="m139.61 222.13c1.849 4.363-3.074 13.483-8 8.8-0.58-2.447 1.38-2.354 0.8-4.8 4.23 0.5 4.22-3.25 7.2-4z"/>
		<path d="m238.01 225.33c-1.252 1.832-3.819 5.196-5.6 4-0.496 4.102-0.496 3.897 0 8-1.88 0.531-4.55-0.536-4.8 3.199h-4c-2.279-3.125-0.724-7.716 4-8-4.674-3.074 3.003-3.336 2.399-7.199 3.56 0.88 5.83-1.93 8 0z"/>
		<path d="m246.81 226.93c2.092-0.226 3.44 0.292 3.199 2.4-2.09 0.23-4 0.27-3.2-2.4z"/>
		<path d="m311.61 228.53c1.313 5.465 1.313 16.137 0 21.601-7.714-1.341-17.562-2.647-23.2-1.601 0.28-6.946-0.193-13.14-0.8-19.199 6.64-1.36 17.35 2.41 24-0.8zm-20 8c6.537-1.118 15.928 3.764 19.2-1.6-5.94 0.99-15.9-2.03-19.2 1.6zm18.4 5.6c-7.526-0.188-10.774-0.252-18.399-0.8 3.77 2.96 13.39 3.65 18.4 0.8z"/>
		<path d="m268.41 230.13c1.029 2.524-6.629 2.524-5.6 0 0.68-0.75 5.1-1.71 5.6 0z"/>
		<path d="m26.81 230.13c1.398 4.348 1.24 14.027 0 18.399-1.399-4.35-1.24-14.03 0-18.4z" fill="#C3A204"/>
		<path d="m249.21 230.93c-0.917 3.317 1.683 3.117 1.601 5.6-4.163 0.696-5.677-1.257-5.601-4.8 0.93-0.67 2.14-1.05 4-0.8z"/>
		<path d="m30.81 231.73c3.965 1.901 4.804 6.93 8.8 8.8 4.099 0.366 3.314-4.152 7.2-4 1.102 8.302-2.872 11.529-5.6 16-6.497-3.83-12.721-13.03-10.4-20.8z" fill="#C3A204"/>
		<path d="m182.81 232.53c3.997-0.487 9.056 1.217 9.6 7.2 1.176 12.937-18.676 12.823-17.601 0 0.21-2.51 1.16-6.36 8-7.2zm-2.4 9.6c1.673 0.461 2.283 1.983 4.8 1.6 0.341-1.525 2.286-1.447 1.601-4-0.807-1.86-2.754-2.579-5.601-2.399-0.92 0.95-0.91 2.83-0.8 4.8z" fill="#F1E5C8"/>
		<path d="m310.81 234.93c-3.272 5.363-12.663 0.481-19.2 1.6 3.3-3.63 13.26-0.61 19.2-1.6z" fill="#F1E5C8"/>
		<path d="m146.01 236.53h5.6c-0.424 5.442-5.13 6.604-10.4 7.2v-4c2.9 1.61 4.01-0.63 4.8-3.2z"/>
		<path d="m10.809 237.33c4.218 0.582 4.855 4.745 7.2 7.199-3.884 1.51-7.485-2.09-7.2-7.2z"/>
		<path d="m181.21 237.33c2.847-0.18 4.794 0.539 5.601 2.399 0.686 2.553-1.26 2.475-1.601 4-2.517 0.384-3.127-1.139-4.8-1.6-0.11-1.97-0.12-3.85 0.8-4.8z"/>
		<path d="m74.81 240.53c0.56 2.463 0.56 1.538 0 4-2.683 0.55-2.925-1.342-3.2-3.199 1.434 0.1 1.687-0.98 3.2-0.8z" fill="#F1E5C8"/>
		<path d="m291.61 241.33c7.625 0.548 10.873 0.612 18.399 0.8-5.01 2.85-14.63 2.16-18.4-0.8z" fill="#F1E5C8"/>
		<path d="m10.009 242.13c-1.951 9.951 9.555 6.445 11.2 12.8-4.831-1.407-4.202-1.386-5.6 3.2-2.052-0.081-1.286-2.981-2.4-4-4.456 1.82 1.981 6.991-0.8 9.6-1.402-0.73-2.779-1.487-2.4-4-2.512-0.395-2.113 2.758-4 0.8 0.778-3.276-1.98-5.125 0-7.199 1.402 0.73 2.779 1.487 2.4 4 3.328-3.35-1.093-10.52 1.6-15.2z"/>
		<path d="m262.81 242.13h8c-0.89 2.53-8.63 5.04-8 0z"/>
		<path d="m73.209 248.53c-7.712-0.746-10.708 2.06-16.8 0 2.456-4.61 15.474-7.59 16.8 0z" fill="#F1E5C8"/>
		<path d="m140.41 244.53h7.2c0.124 3.591-3.595 3.339-7.2 3.2v-3.2z"/>
		<path d="m30.81 246.13c3.059 6.182 11.819 14.406 16 4 2.852 7.412 0.087 12.6-1.6 19.2-9.509-3.2-17.106-12.52-14.4-23.2z" fill="#C3A204"/>
		<path d="m198.01 253.33h2.4c2.036 1.497-1.787 3.854 2.4 3.199 0.73 6.383-3.112 15.648-8.801 10.4 3.1-3.29 3.51-9.88 4-13.6z"/>
		<path d="m261.21 261.33h4c1.1 2.91-5.39 3.83-4 0z"/>
		<path d="m222.81 277.33c-0.191-4.609-2.528-7.073-6.4-8v-3.2c0.945-0.921 2.828-0.905 4.8-0.8-0.458 6.123 3.786 4.828 7.2 5.6 0.374 1.707-1.143 1.523-2.4 1.6-0.131 2.266 4.932-0.664 4.801 1.601-1.17 2.56-5.31 2.16-8 3.2z"/>
		<path d="m32.409 266.13c4.753 0.58 5.799 4.867 9.6 6.399 3.032-1.234 5.38-3.152 6.4-6.399 3.986 3.434 1.627 13.578-0.8 17.6-7.33-3.6-14.406-7.46-15.2-17.6z" fill="#C3A204"/>
		<path d="m8.409 273.33c8.146 1.187 12.554 6.112 18.4 9.6-1.995 10.528 5.997 11.069 6.4 19.2 2.552 0.475 2.474-1.502 4 0-0.33 3.797 2.73 4.203 2.4 8-7.633-1.728-8.492 5.194-13.6 1.6-0.262 4.529 3.733 4.801 5.6 7.2 1.228-3.039 1.735-6.798 5.6-7.2 0.71 1.423 2.233 2.033 1.6 4.801-0.929 0.671-2.145 1.055-4 0.8 0.15 4.514 7.967 1.37 7.2-2.4 3.86 8.181 14.693 13.519 13.6 24-1.948-4.452-9.716-3.084-13.6-5.6 0.496 3.771 3.629 4.904 4 8.8-5.204-0.105-10.833-6.197-5.6-9.6-1.17-2.136-4.389 0.334-4 2.399-4.539-1.061-5.425-5.774-7.2-9.6 8.03-0.224 8.341 6.316 17.6 6.399 4.632-3.587 1.488-10.913-5.6-9.6 0.412 3.055 4.971 1.962 4 6.4-8.936 0.762-4.972-6.514-11.2-8-0.461 2.472-3.054 2.812-6.4 2.399-4.3-5.833-8.723-11.544-10.4-20 2.967 0.5 4.684 2.249 7.2 3.2 3.533-0.2 4.8-2.667 8-3.2-1.725-1.475-3.939-2.46-5.6-4-2.052 0.081-1.286 2.981-2.4 4-6.957-5.31-12.884-11.648-15.2-21.6-0.245-1.845 2.311-0.889 2.4-2.4 0.471-3.4-4.319-1.55-3.2-5.6z" fill="#C3A204"/>
		<path d="m125.21 273.33c2.406-0.807 1.417 1.782 1.6 3.199 1.779-1.685 3.857 0.844 7.2 0 0.636 2.298 1.62 4.247 2.4 6.4h-5.6c1.445 2.478 2.45 0.428 5.6 0.8 0.996 4.998-4.442 6.922-8 4.8 0.651-3.614-1.046-9.579 4-8.8-3.701-1.099-7.995-1.605-8.8-5.6 0.93 0.13 1.42-0.17 1.6-0.8z"/>
		<path d="m257.21 273.33h8c-0.73 2.469-3.743 2.656-6.399 3.199-0.35-1.25-2.52-0.68-1.6-3.2z"/>
		<path d="m232.41 276.53c0.609 4.373-7.097 3.693-8.8 3.2 0.11-3.89 6.48-1.52 8.8-3.2z"/>
		<path d="m266.81 282.13c-4.211 0.225-4.744-0.846-8 0-0.1-2.15 8.24-2.85 8 0z" fill="#C3A204"/>
		<path d="m51.609 281.33c5.166 1.609 2.548 10.701 0.8 14.399-6.786-2.813-13.651-5.549-15.2-13.6 4.816 0.518 5.936 4.73 10.4 5.6 3.271-0.19 2.768-4.16 4-6.4z" fill="#C3A204"/>
		<path d="m171.61 285.33c-1.067 1.142-4.533 1.142-5.601 0v-2.4c2.44-2.26 5-1.04 5.6 2.4z"/>
		<path d="m93.209 298.13c-5.628 2.905-11.862 5.205-16.8 8.8 7.38 0.67 12.527-2.897 20.8-4-2.752 7.915-9.385 11.948-13.6 18.4-3.013 0.346-3.643-1.69-4.8-3.2 1.479-3.854 5.453-5.213 7.2-8.8-3.512-2.15-8.14 1.438-12.8 0.8-2.538-6.528-6.791-11.342-8.8-18.4 7.399-0.185 12.962-7.374 22.4-8 1.868 5.07 5.845 8.02 6.4 14.4zm-24-0.8c6.326-1.408 9.626-5.841 15.2-8-6.823 0.91-11.311 4.16-15.2 8zm4 6.4c5.416-2.584 10.125-5.875 14.4-9.6-6.082 1.92-12.113 3.89-14.4 9.6z"/>
		<path d="m199.61 287.73c1.208 1.219 4.176 1.863 4 6.4 1.163-1.237 4.095-0.705 6.399-0.8 0.799 2.204 5.238 8.726 0 9.6-3.09-4.98-12.74-7.41-10.4-15.2z"/>
		<path d="m165.21 288.53c-2.692 4 2.064 4.523 2.4 9.601-5.443 2.809-9.135-2.428-8-8.8 2.52 0.39 2.83-1.44 5.6-0.8z"/>
		<path d="m84.41 289.33c-5.574 2.159-8.875 6.592-15.2 8 3.888-3.84 8.376-7.09 15.2-8z" fill="#F1E5C8"/>
		<path d="m281.21 290.13c5.148 2.585 10.515 4.952 15.2 8-4.85 0.31-12.35-3.65-15.2-8z" fill="#F1E5C8"/>
		<path d="m178.81 294.13c2.256-2.461 5.15 1.203 4.8 4-4.17 1.24-3.15-2.71-4.8-4z"/>
		<path d="m87.609 294.13c-4.275 3.725-8.984 7.016-14.4 9.6 2.287-5.71 8.318-7.68 14.4-9.6z" fill="#F1E5C8"/>
		<path d="m258.01 294.13c-2.035 3.744-5.759 0.93-10.399 1.6 1.81-2.18 6.5-1.5 10.4-1.6z" fill="#C3A204"/>
		<path d="m182.01 298.93c2.264 0.137 5.488-0.688 5.601 1.601 0.374 1.707-1.144 1.523-2.4 1.6 0.12 1.479 2.709 0.491 3.2 1.6-0.439 3.191-0.439 2.409 0 5.601-0.712 0.621-1.807 0.859-3.2 0.8 3.29 2.498-0.724 4.411-0.8 8-16.32-1.25 0.87-10.89-2.4-19.2z"/>
		<path d="m250.81 303.73c-1.631 1.836-6.645 0.29-9.601 0.801-3.7-0.83 9.1-1.5 9.6-0.8z" fill="#C3A204"/>
		<path d="m157.21 303.73c-0.72 6.213-3.031 10.836-10.4 10.4-0.37-7.3 5.48-8.39 10.4-10.4z"/>
		<path d="m59.609 304.53c3.58-0.049 2.708 7.5 1.6 9.6-5.643-0.49-10.921-1.346-12.8-5.6 3.008 0.43 10.286 1.64 11.2-4z" fill="#C3A204"/>
		<path d="m65.209 314.13c3.886 0.646 2.499 6.568 3.2 10.4-5.393-0.741-10.354-1.914-13.6-4.801 0.336-3.24 5.43 1.098 8.8 0 1.238-1.16 1.68-3.12 1.6-5.6z" fill="#C3A204"/>
		<path d="m236.41 317.33c-2.949 1.851-9.321 0.278-13.6 0.8 0.13-1.14 10.36-2.7 13.6-0.8z" fill="#C3A204"/>
		<path d="m71.609 320.53c5.485 1.447 3.496 10.37 5.6 15.199-4.033-3.167-13.526-0.874-14.4-7.199 2.967-0.567 3.433 1.366 6.4 0.8 2.992-1 4.002-5.52 2.4-8.8z" fill="#C3A204"/>
		<path d="m222.81 324.53c-3.74 3.613-8.732-0.033-13.601 0.8-0.09-1.71 9.74-0.37 13.6-0.8z" fill="#C3A204"/>
		<path d="m122.01 350.93c6.804-3.33 10.196-10.07 17.6-12.8 1.457 7.161-3.767 14.288-4 22.4-2.775 0.642-3.075-1.192-5.6-0.801 0.026-5.573 2.69-8.51 3.2-13.6-4.723 1.677-6.339 6.461-10.4 8.8-5.911-2.089-10.048-5.952-15.2-8.8 4.128-6.538 10.997-10.337 12.8-19.2 5.65 0.216 7.398 4.335 11.2 6.4-3.45 5.62-6.53 11.61-9.6 17.6zm-7.2-3.2c4.15-0.019 11.693-11.601 9.6-15.199-3.24 5.03-8.47 8.06-9.6 15.2z"/>
		<path d="m211.61 328.53c-12.194 3.636-27.023-0.31-41.601 0.8 9.6-3.11 27.63-1.83 41.6-0.8z" fill="#C3A204"/>
		<path d="m188.41 332.53c-6.224 2.062-18.424 0.035-4.8 0 2.05 0 2.11-1.25 4.8 0z" fill="#C3A204"/>
		<path d="m124.41 332.53c2.093 3.599-5.45 15.181-9.6 15.199 1.13-7.14 6.36-10.17 9.6-15.2z" fill="#F1E5C8"/>
		<path d="m237.21 332.53c7.881 3.318 11.594 10.807 19.2 14.399-0.028 2.638-2.275 3.059-4.8 3.2-3.892-1.709-5.184-6.017-9.601-7.2-1.65 3.277 2.021 8.093 1.601 12.8h-2.4c-3.03-6.03-2.95-15.18-4-23.2z"/>
		<path d="m49.209 338.13c5.13 1.804 8.889 4.978 12 8.8-0.802 2.665-3.58 3.354-2.4 8-5.616-3.232-12.41-3.092-15.2-10.399 5.419 1.23 7.737-2.43 5.6-6.4z" fill="#C3A204"/>
		<path d="m58.81 338.13c4.347 3.119 8.163 6.771 11.2 11.2 0.702 2.567-2.075 1.658-2.4 3.2 2.898 3.614 7.546-2.439 10.4 2.399-0.566 4.3 0.633 6.834 1.6 9.601-3.184-0.518-3.216 2.117-6.4 1.6v-4c-3.9 2.188-9.287-1.952-16-1.6 0.546-4.255 8.217-1.384 8-6.4-0.743-2.725-2.241-4.692-1.6-8.8-0.118-1.749-2.016-1.718-4-1.601-0.256-1.88-1.264-3-0.8-5.6z" fill="#C3A204"/>
		<path d="m91.609 342.93c2.516-0.916 1.944 1.256 3.2 1.601 0.572 3.681-3.957 6.046 0.8 7.199-2.054 1.771-9.452 3.051-10.4-1.6 2.388-0.972 5.118-1.597 7.2-0.8-0.484-1.91-1.15-3.65-0.8-6.4z" fill="#C3A204"/>
		<path d="m173.21 346.13c2.503 0.163 5.873-0.54 7.2 0.8-2.096 4.838-1.623 12.243-1.6 19.2 4.897-4.702 4.059-15.142 9.6-19.2 5.036 5.897 5.587 16.28 9.6 23.2h-7.199c-0.338-5.263-1.068-10.133-4-12.8-3.3 3.101-2.696 10.104-5.601 13.6-3.198 0.266-4.44-1.426-8-0.8 0.22-5.81 0.05-14.51 0-24z"/>
		<path d="m104.41 355.73c1.634 1.832 3.604 3.33 4 6.4-4.987 0.187-9.909 0.309-12-2.4 1.876-2.12 5.82-2.18 8-4z" fill="#C3A204"/>
		<path d="m114.01 358.13c1.51 1.156 3.546 1.787 3.2 4.8-1.51-1.15-3.55-1.79-3.2-4.8z" fill="#C3A204"/>
		<path d="m117.21 364.53c2.477 0.189 3.107 2.226 4.8 3.199-0.75 3.473-5.167 2.046-8 1.601 0.03-2.63 3.95-1.38 3.2-4.8z" fill="#C3A204"/>
		<path d="m68.41 367.73c0.1-1.767 3.394-0.34 4.8-0.8 0.105 1.973 0.121 3.854-0.8 4.8-1.881-0.78-1.328-4-4-4z" fill="#C3A204"/>
		<path d="m92.41 367.73c2.783 0.95 6.001 1.465 6.4 4.801-1.407 4.459-8.328 3.405-10.4 7.199-1.514-3.67 4.616-6.56 4-12z" fill="#C3A204"/>
		<path d="m134.81 374.13c-3.015-0.615-3.824 0.976-6.4 0.8-1.08-4.18 6.57-4.21 6.4-0.8z" fill="#C3A204"/>
		<path d="m110.01 379.73c-7.868-4.551-9.517 9.707-16 4 0.989-2.478 2.251-4.683 6.4-4 1.67-5.47 10.95-7.58 9.6 0z" fill="#C3A204"/>
		<path d="m142.81 374.13c2.036 0.098 3.102 1.164 3.2 3.2h-4c0.62-0.71 0.86-1.8 0.8-3.2z" fill="#C3A204"/>
		<path d="m154.01 376.53c1.949 0.451 4.115 0.685 4 3.199-2.261-0.661-2.072 1.128-4 0.801v-4z" fill="#C3A204"/>
		<path d="m113.21 379.73c1.292-0.225 1.377 0.757 2.4 0.801-0.83 5.387-7.902 7.609-11.2 8-1.604-1.699 1.136-3.565 1.6-5.601 4.13 0.67 6.37-0.56 7.2-3.2z" fill="#C3A204"/>
		<path d="m131.61 386.13c-4.461 0.338-6.149 3.45-6.4 8h-3.2c0.484-1.916 1.15-3.649 0.8-6.4 3.21 0.06 7.01-7.66 8.8-1.6z" fill="#C3A204"/>
		<path d="m135.61 385.33h3.2c0.46 1.673 1.983 2.283 1.6 4.8-2.223 1.511-7.157 0.31-6.4 4.8-3.651-0.403-4.534 1.39-7.2 0 3.48-2.65 8.02-4.24 8.8-9.6z" fill="#C3A204"/>
		<path d="m144.41 386.93c1.292-0.226 1.377 0.756 2.4 0.8-1.781 4.086-3.142 8.592-7.2 10.4v-4c4.82 0.82 3.21-4.79 4.8-7.2z" fill="#C3A204"/>
		<path d="m155.61 389.33c-1.368 3.965-4.962 5.704-6.4 9.6-2.54-1.58 1.65-12.73 6.4-9.6z" fill="#C3A204"/>
		<path d="m183.61 390.93c2.883-0.216 5.533-0.2 4.8 3.2-3.19 0.52-4.89-0.44-4.8-3.2z" fill="#C3A204"/>
		<path d="m177.21 391.73c2.499-0.366 2.558 1.71 2.4 4-1.4-0.73-2.78-1.49-2.4-4z" fill="#C3A204"/>
		<path d="m164.41 394.13h3.2c-0.492 3.899-4.855 5.943-8 4.8 1.37-1.83 5.69-0.71 4.8-4.8z" fill="#C3A204"/>
		<path d="m190.81 47.732c6.286 26.516-32.916 31.47-41.601 15.2 3.13-5.978 1.692-13.257 0-16.8 5.97-14.358 35.42-8.789 41.6 1.6zm-33.6-7.2c4.993 4.607 17.746 1.454 24.8 4-3.56-5.171-15.61-4.947-24.8-4zm22.4 16c-6.245 1.076-14.504 0.271-19.2 0.8 1.836 3.764 9.936 1.264 13.6 3.2-6.634 1.501-13.396-0.747-21.6 0 0.374 5.04 5.879 4.813 4 8 3.136 0.036 2.479-1.689 3.2-2.4 3.451 2.356 12.003-0.571 14.4 0.8-2.533 2.799-12.358-1.692-13.6 2.4 10.559 0.422 20.05 1.217 24.8-5.6-3.412-1.684 1.634-2.663 0.8-6.4-3.651-0.946-6.97 2.577-8.8 0.8 1.37 0.043 2.05-0.616 2.4-1.6z" fill="#C3A204"/>
		<path d="m180.41 77.332c2.598-2.285 5.781 1.651 8 2.4-1.12 0.804-5.06-2.37-8-2.4z" fill="#C3A204"/>
		<path d="m162.81 95.732c-9.792 3.808-23.572 3.628-33.6 7.2 8.76-4.836 21.99-5.206 33.6-7.198z" fill="#C3A204"/>
		<path d="m182.01 71.732c3.749 4.518 9.39 7.144 12.801 12 21.858 5.1 44.146 12.99 61.6 25.6 33.643 24.307 60.292 65.914 65.6 112 6.65 57.746-13.898 101.1-42.399 129.6-13.14 13.14-26.174 24.878-42.4 33.601-32.518 17.479-80.483 24.652-124 9.6 3.166-3.768 12.638-7.953 8.8-13.6-4.226-0.227-2.334 5.666-4 8-3.979-0.246-6.37 1.096-5.6 5.6-30.903-8.774-54.098-26.599-72.8-48.8-25.564-30.348-49.805-84.775-35.2-142.4 14.464-57.065 61.062-104.08 118.4-118.4 5.485-1.37 12.307-0.137 17.6-2.4 4.578-1.957 4.785-7.399 11.2-8.8-1.343-4.79-4.805-7.462-7.2-11.2-27.597 0.292-38.795-37.882-18.4-52.8 18.321-13.402 66.724-12.397 83.2 3.2 16.183 15.319 10.546 42.997-15.2 48-2.66 5.076-5.81 9.655-12 11.202zm-84.001 26.4c-7.128 1.939-12.567 5.566-18.4 8.8-2.904 4.296-1.793 12.606-5.6 16 0.7-4.039 0.715-6.936-0.8-10.4-6.604 4.812-13.285 7.297-14.4 16 0.608 1.258 2.538 1.195 2.4 3.2-3.463 2.715-11.893 11.858-4.8 15.2 9.783-8.885 16.61-20.723 28.8-27.2-2.015-1.452-6.848-0.085-5.6-4.8 3.674 1.488 10.235 1.236 10.4-3.2-1.281-1.918-4.7-1.7-4-5.6 1.082-0.251 1.528-1.139 3.2-0.8-0.897 2.52-0.072 1.811 0 4.8 6.735-0.2 6.503-7.36 8.8-11.998zm115.2-68c-2.42-32.369-66.86-34.143-88-15.2-8.925 7.997-8.396 26.852 0 34.4 3.125 2.81 20.471 10.668 21.6 5.6 1.317-5.911-8.859-5.529-12.8-8-2.37-1.486-8.825-8.056-8.8-15.2 0.108-31.092 73.2-32.908 79.2-4.8 3.093 14.487-8.855 12.729-11.2 26.4 11.19-1.369 20.94-10.569 20-23.2zm-81.6-5.6c-5.4 8.614-0.327 22.474 12.8 23.2 5.727-18.333 38.428-13.452 48.8-2.4 5.285-2.715 8.644-7.356 9.601-14.4-6.74-18.62-59.42-25.184-71.2-6.4zm17.6 21.6c1.692 3.543 3.13 10.823 0 16.8 8.685 16.27 47.887 11.316 41.601-15.2-6.18-10.389-35.63-15.958-41.6-1.6zm17.6 31.2c-6.094 3.808-14.634-3.08-17.6 0 1.887 4.513 9.979 2.821 16 3.2 2.023 7.843 6.382 13.352 4.8 24.8 2.082 0.797 4.812 0.171 7.2-0.8 0.81-5.761-2.693-13.924 2.4-18.4 8.076 1.79 3.823 15.91 11.2 18.4 1.268-16.853-4.225-26.101-21.601-22.4 0.578-2.444-0.818-2.916-0.8-4.8 2.662-1.871 9.646 0.579 10.4-3.2-6.276 0.541-16.066 0.941-24-0.8 0.49 4.841 8.73 1.934 12 4.002zm21.6 2.4c-2.219-0.749-5.402-4.685-8-2.4 2.94 0.03 6.88 3.204 8 2.4zm-45.6 10.4c0.443 2.224 3.093 2.24 4.8 3.2-2.179-2.488 2.048-6.695-1.6-8-0.5 2.169-3.34 1.991-3.2 4.8zm-8.8 2.4h4c-0.387-3.054 0.227-5.106 1.6-6.4-2.71 1.296-5.34 2.658-5.6 6.4zm-10.4-4c-0.58 2.447 1.38 2.354 0.8 4.8-2.772-0.105-4.645 0.689-4 4 5.502-2.609 9.625 1.212 12.8-1.6-3.735-1.109-5.216-4.882-4-8.8-2.93-0.526-3.07 1.731-5.6 1.6zm-13.6 8c-1.541-0.325-0.632-3.101-3.2-2.4-4.349 3.918-8.089 8.445-9.6 15.2-1.413 1.294-6.631 2.916-4 5.6 1.585-3.748 7.479-3.188 9.6-6.4-2.475 0.075-2.384-2.416-2.4-4.8 1.082-0.251 1.528-1.139 3.2-0.8-0.251 1.082-1.139 1.528-0.8 3.2 8.96 0.961 12.922-3.078 18.4-5.6-4.634-0.781-4.159-7.899-5.6-9.6-1.3 2.439-2.46 5.005-5.6 5.602zm19.2 6.398c10.028-3.572 23.808-3.393 33.6-7.2-11.61 1.994-24.84 2.364-33.6 7.2zm140.8 32c-17.739-18.531-43.279-30.764-71.199-36.8 27 9.01 51.91 20.09 71.2 36.8zm-112.8-28.8c2.11 1.875 5.455 0.134 8 0-0.096-2.304 0.437-5.237-0.8-6.4-4.89-0.355-5.76 3.31-7.2 6.4zm-13.6 1.6c2.452 4.487 6.252 0.396 11.2 0.8-1.01-4.21 1.657-4.743 1.6-8-6.19 0.48-10.61 2.73-12.8 7.2zm-34.4 3.2c7.027-2.04 12.761-5.372 19.2-8-7.46 1.61-13.98 4.16-19.2 8zm22.4 1.6c0.897 0.169 1.246 0.888 1.6 1.6 3.643-0.357 5.944-2.056 8.8-3.2-1.43-3.81 0.233-4.468 1.6-7.2-6.35-2.45-11.27 3.02-12 8.8zm-13.6 6.4c6.057 0.99 8.108-2.026 12-3.2-0.959-4.107-1.676-4.863 0-8.8-7.44 0.56-9.76 6.24-12 12zm-48.801 52c-14.26 23.167-25.541 63.74-16.8 100.8 4.761 20.186 14.479 38.179 27.2 52.801 25.165 28.925 69.73 57.587 122.4 49.6 85.42-12.954 143.75-107 100-195.2-6.028-12.154-14.66-21.06-23.199-30.4-22.228-24.311-61.066-45.232-105.6-40.8-48.36 4.81-85.088 32.48-104 63.2zm32.801-46.4c4.596 2.208 11.277 0.263 14.4-1.6-2.513-5.654 1.158-8.626 3.2-12-9.03 1.37-14.37 6.43-17.6 13.6zm-22.401 5.6c5.607-5.859 13.512-9.421 20-14.4-0.621 0.179-1.578 0.022-1.6 0.8-6.813 3.33-15.586 8.94-18.4 13.6zm11.201 5.6c7.136-1.13 13.312-3.222 16-8.8-1.913-0.487-5.804 1.004-6.4-0.8-1.066-3.538 3.761-5.773 0-7.2-6.625 1.72-10.56 10.14-9.6 16.8zm-79.201 68h-3.2c-4.767 17.274-6.173 41.217-3.2 61.601 3.157 0.31 3.681 3.252 5.6 4.8 1.855 0.255 3.072-0.129 4-0.8 2.144 1.856 1.874 6.126 5.6 6.399 1.5-0.899 1.7-3.101 3.2-4-0.814 3.26 1.101 7.905 3.2 5.601-3.993-10.408-1.379-27.422-7.2-36 3.338-3.596 3.64-10.228 3.2-17.601-7.789 2.579-10.9-7.721-4.8-9.6 1.902 1.562-1.462 4.477 0.8 6.399h3.2c2.184-2.966-0.401-6.694 0-10.399 1.513-0.18 1.765 0.901 3.2 0.8 0.134-2.267 1.466-3.334 1.6-5.6-3.261-0.661-2.755-0.123-6.4 0-1.125-1.98-3.318-7.47 0.8-8-0.675 3.342 1.555 3.778 1.6 6.4 6.584-1.905 3.911-9.614 2.4-15.2-3.137-0.747-10.266-7.052-4-9.6 0.002 7.73 7.23 8.236 8.8 14.4 0.67-1.729 2.071-2.729 1.6-5.6-5.775-1.911-1.903-10.423-1.6-13.6 3.673 1.656 0.221 6.861 0.8 10.4 5.778-2.222 7.273-8.727 8.8-15.2-1.507-1.16-4.157-1.176-4.8-3.2 0.592-3.141-1.688-9.154 2.4-8.8 0.236 3.112-2.071 6.329 0 8.8 4.502-2.698 9.416-4.984 12-9.6-5.124 0.577-9.89-8.831-3.2-10.4 1.121 2.196-1.372 6.938 3.2 7.2 1.755-10.919 8.614-21.059 8-29.6-4.505 3.229-6.608 8.858-12 11.2-1.176 3.042 3.576 0.157 2.4 3.2-5.09-0.557-2.781 6.286-6.4 7.2-1.185-0.148-0.733-1.933-0.8-3.2-5.892 2.108-7.115 8.885-10.4 13.6 4.706-0.212 0.247 7.913-0.8 9.6-3.394-1.57 0.034-7.188-0.8-8-7.6 14.12-17.914 25.66-16.8 46.4zm66.4-56.8c7.213-1.054 12.22-4.313 16-8.8-2.364-0.12-5.646 2.326-6.4-0.8-0.797-4.53 2.397-5.07 1.6-9.6-8.748 1.39-9.969 10.3-11.2 19.2zm-9.599 12c6.44-0.768 13.323-5.333 12.8-10.4-1.346 1.529-4.591 2.173-5.6 0-0.812-4.57 3.57-8.131 0.8-12-5.468 4.3-11.793 11.46-8 22.4zm208-17.6c-0.91-2.29-2.51-3.89-4.8-4.8 0.77 2.43 2.54 3.86 4.8 4.8zm-220.8 14.4c4.387-7.08 10.75-12.184 16-18.4-6.694 4.25-13.938 12.19-16 18.4zm235.2 0c-3.94-3.269-8.191-10.464-12-11.2 3.89 3.32 8.44 10.22 12 11.2zm-231.2 16.8c5.744-2.79 11.528-5.539 13.6-12-1.916 0.484-3.65 1.15-6.4 0.8-3.243-2.532 0.835-7.639-1.6-11.2-0.177-0.623-0.67-0.93-1.6-0.8-3.928 4.47-8.649 15.34-4 23.2zm-20.799 11.2c3.74-9.862 11.651-19.812 15.2-27.2-5.35 8.25-13.805 17.66-15.2 27.2zm270.4 2.4c-4.127-10.809-10.789-23.342-18.399-28 6.85 8.62 12.11 18.83 18.4 28zm-257.6 0.8c6.285-2.521 13.55-8.31 12.8-15.2-8.174 8.708-8.076-3.712-9.6-9.6-6.735 5.66-6.896 15.32-3.2 24.8zm-4.799 17.6c5.682-4.185 9.889-9.844 11.2-18.4-3.496 0.771-4.332 4.202-8.8 4-3.728-3.646 1.127-11.244-3.2-13.6-6.087 5.39-6.053 22.77 0.8 28zm-5.601 16.8c7.043-2.557 9.463-9.737 11.2-17.601-3.026-1.816-3.833 4.402-8 4-5.007-1.926-2.365-11.501-5.6-15.2-6.758 10.05-1.888 19.77 2.4 28.8zm-11.2-12c1.904-3.946 4.201-13.583 3.2-12-2.625 4.15-6.846 23.184-5.6 30.4 0.419-6.51 2.537-11.33 2.4-18.4zm10.4 28c6.089-2.445 7.813-9.255 8-17.601-3.642 0.358-3.444 4.556-7.2 4.8-0.135-0.932-1.265-0.868-2.4-0.8-1.006-5.127-2.313-9.953-5.6-12.8-4.026 10.79 1.687 20.45 7.2 26.4zm-13.599 11.2c1.24-4.372 1.398-14.052 0-18.399-1.24 4.37-1.399 14.05 0 18.4zm14.399 4c2.729-4.471 6.702-7.698 5.6-16-3.886-0.152-3.101 4.366-7.2 4-3.996-1.87-4.835-6.898-8.8-8.8-2.32 7.77 3.904 16.97 10.4 20.8zm4 16.8c1.688-6.601 4.452-11.788 1.6-19.2-4.181 10.406-12.941 2.182-16-4-2.705 10.68 4.892 20 14.4 23.2zm36.8 84.8c11.41 9.094 25.546 20.579 41.6 22.4-52.589-21.011-87.263-59.938-96.8-124 3.769 47.37 27.571 79.58 55.199 101.6zm-34.4-70.4c2.427-4.021 4.786-14.166 0.8-17.6-1.02 3.247-3.368 5.165-6.4 6.399-3.801-1.532-4.847-5.819-9.6-6.399 0.794 10.14 7.87 14 15.2 17.6zm-36-4.8c-0.089 1.512-2.645 0.556-2.4 2.4 2.315 9.951 8.243 16.29 15.2 21.6 1.115-1.019 0.348-3.919 2.4-4 1.66 1.54 3.875 2.525 5.6 4-3.2 0.533-4.467 3-8 3.2-2.516-0.951-4.233-2.7-7.2-3.2 1.677 8.456 6.1 14.167 10.4 20 3.346 0.413 5.939 0.072 6.4-2.399 6.228 1.486 2.264 8.762 11.2 8 0.971-4.438-3.588-3.346-4-6.4 7.088-1.313 10.232 6.013 5.6 9.6-9.259-0.083-9.57-6.623-17.6-6.399 1.774 3.825 2.661 8.539 7.2 9.6-0.389-2.065 2.83-4.535 4-2.399-5.233 3.402 0.396 9.494 5.6 9.6-0.371-3.896-3.504-5.029-4-8.8 3.884 2.516 11.652 1.147 13.6 5.6 1.093-10.481-9.74-15.819-13.6-24 0.767 3.771-7.049 6.914-7.2 2.4 1.855 0.255 3.071-0.129 4-0.8 0.633-2.768-0.89-3.378-1.6-4.801-3.865 0.402-4.372 4.161-5.6 7.2-1.867-2.399-5.862-2.671-5.6-7.2 5.108 3.595 5.967-3.327 13.6-1.6 0.33-3.797-2.73-4.203-2.4-8-1.526-1.502-1.448 0.475-4 0-0.403-8.131-8.395-8.672-6.4-19.2-5.846-3.487-10.254-8.413-18.4-9.6-1.119 4.05 3.671 2.2 3.2 5.6zm36 8.8c-4.464-0.869-5.584-5.082-10.4-5.6 1.549 8.051 8.414 10.786 15.2 13.6 1.749-3.698 4.366-12.79-0.8-14.399-1.232 2.24-0.729 6.21-4 6.4zm8 18.4c0.639-4.341 1.864-5.997 0.8-10.4-4.073 8.279-12.901-1.873-16-1.6 3.136 5.93 8.179 9.96 15.2 12zm-7.2 2.4c1.879 4.254 7.157 5.109 12.8 5.6 1.108-2.1 1.979-9.648-1.6-9.6-0.914 5.64-8.192 4.43-11.2 4zm15.2 11.2c-3.37 1.098-8.464-3.24-8.8 0 3.247 2.887 8.207 4.06 13.6 4.801-0.702-3.832 0.686-9.754-3.2-10.4 0.08 2.48-0.362 4.44-1.6 5.6zm5.6 9.6c-2.967 0.566-3.433-1.367-6.4-0.8 0.874 6.325 10.367 4.032 14.4 7.199-2.104-4.829-0.115-13.752-5.6-15.199 1.602 3.28 0.592 7.8-2.4 8.8zm224-1.6c2.965-0.529 5.418-5.746 4.8-7.199-1.09 2.92-4.05 3.95-4.8 7.2zm-5.6 8.8c0.648-2.846 5.201-5.963 4-8-0.41 3.09-5.58 5.59-4 8zm-209.6 5.6c-1.256-0.344-0.684-2.517-3.2-1.6-0.179 1.512 0.901 1.765 0.8 3.199 3.958-0.265 4.652-2.562 8.8-0.8-0.688-2.806-2.699-8.465-4.8-7.2 2.168 1.71-0.499 5.32-1.6 6.4zm-34.4 2.4c2.791 7.308 9.584 7.167 15.2 10.399-1.18-4.646 1.598-5.335 2.4-8-3.111-3.822-6.87-6.996-12-8.8 2.137 3.97-0.181 7.63-5.6 6.4zm16-0.8c1.984-0.117 3.882-0.148 4 1.601-0.641 4.107 0.857 6.075 1.6 8.8 0.217 5.017-7.454 2.146-8 6.4 6.713-0.353 12.1 3.787 16 1.6v4c3.184 0.518 3.216-2.117 6.4-1.6-0.967-2.767-2.166-5.301-1.6-9.601-2.854-4.839-7.502 1.215-10.4-2.399 0.325-1.542 3.102-0.633 2.4-3.2-3.037-4.43-6.853-8.081-11.2-11.2-0.463 2.6 0.545 3.72 0.8 5.6zm32.801 5.6c-2.083-0.797-4.812-0.172-7.2 0.8 0.948 4.65 8.346 3.37 10.4 1.6-4.756-1.153-0.228-3.519-0.8-7.199-1.256-0.345-0.684-2.517-3.2-1.601-0.351 2.75 0.315 4.49 0.8 6.4zm156.8 14.4c5.253-5.151 15.602-9.459 17.601-15.199-4.47 5.93-15.7 9.37-17.6 15.2zm-152.8-4c2.091 2.709 7.013 2.587 12 2.4-0.396-3.07-2.366-4.568-4-6.4-2.18 1.82-6.124 1.88-8 4zm20.8 3.2c0.346-3.013-1.69-3.644-3.2-4.8-0.35 3.01 1.69 3.65 3.2 4.8zm-37.601 12.8c2.831-3.292 3.032 2.781 6.4 1.601-0.255-1.879-1.264-3.003-0.8-5.601h4c-0.729-4.07-1.89-7.71-4.8-9.6-3.504 2.11-4.606 10.85-4.8 13.6zm163.2-8c0.712-1.475 6.001-2.46 4-4-1.21 0.98-5.8 2.66-4 4zm-128.8 1.6c2.833 0.445 7.25 1.872 8-1.601-1.692-0.974-2.323-3.01-4.8-3.199 0.75 3.42-3.17 2.17-3.2 4.8zm-41.6 2.4c0.921-0.945 0.905-2.827 0.8-4.8-1.406 0.46-4.7-0.967-4.8 0.8 2.672 0 2.119 3.22 4 4zm16 8c2.072-3.794 8.993-2.74 10.4-7.199-0.398-3.336-3.617-3.851-6.4-4.801 0.616 5.44-5.514 8.33-4 12zm40-4.8c2.576 0.176 3.385-1.415 6.4-0.8 0.17-3.41-7.48-3.38-6.4 0.8zm104-2.4c-0.788-1.12-10.096 2.556-12.8 4.8 5.79-0.08 7.93-3.81 12.8-4.8zm-132 7.2c-4.149-0.683-5.412 1.522-6.4 4 6.483 5.707 8.132-8.551 16-4 1.35-7.58-7.93-5.47-9.6 0zm41.6-2.4h4c-0.098-2.036-1.164-3.103-3.2-3.2 0.06 1.4-0.18 2.49-0.8 3.2zm12 3.2c1.928 0.327 1.739-1.462 4-0.801 0.115-2.515-2.051-2.748-4-3.199v4zm64-2.4c-20.991 5.823-51.564 8.476-76 4-0.324-1.81-4.688 0.422-3.2-3.2-4.779 2.4-8.611-0.97-12.8-1.6 23.34 13.17 67.75 10.55 92 0.8zm-112 4.8c-0.464 2.035-3.204 3.901-1.6 5.601 3.298-0.391 10.37-2.613 11.2-8-1.022-0.044-1.108-1.025-2.4-0.801-0.83 2.64-3.07 3.87-7.2 3.2zm16.8 4.8c0.35 2.751-0.316 4.484-0.8 6.4h3.2c0.25-4.55 1.938-7.662 6.4-8-1.79-6.06-5.59 1.66-8.8 1.6zm4 7.2c2.666 1.39 3.548-0.403 7.2 0-0.756-4.49 4.177-3.289 6.4-4.8 0.383-2.517-1.14-3.127-1.6-4.8h-3.2c-0.78 5.36-5.32 6.95-8.8 9.6zm12.8-0.8v4c4.058-1.809 5.419-6.314 7.2-10.4-1.023-0.044-1.108-1.025-2.4-0.8-1.59 2.41 0.02 8.02-4.8 7.2zm9.6 4.8c1.438-3.896 5.032-5.635 6.4-9.6-4.75-3.13-8.94 8.02-6.4 9.6zm39.2-4.8c0.733-3.4-1.917-3.416-4.8-3.2-0.09 2.76 1.61 3.72 4.8 3.2zm-8.8 1.6c0.157-2.29 0.099-4.366-2.4-4-0.38 2.51 1 3.27 2.4 4zm-20 3.2c3.145 1.144 7.508-0.9 8-4.8h-3.2c0.89 4.09-3.43 2.97-4.8 4.8z"/>
		<path d="m198.81 98.132c27.92 6.036 53.46 18.27 71.199 36.8-19.29-16.71-44.2-27.79-71.2-36.798z" fill="#C3A204"/>
		<path d="m128.41 102.93c-6.439 2.628-12.173 5.96-19.2 8 5.22-3.84 11.74-6.39 19.2-8z" fill="#C3A204"/>
		<path d="m173.21 107.73c44.534-4.432 83.373 16.489 105.6 40.8 8.539 9.34 17.171 18.246 23.199 30.4 43.746 88.197-14.58 182.25-100 195.2-52.67 7.987-97.235-20.675-122.4-49.6-12.721-14.622-22.439-32.615-27.2-52.801-8.741-37.06 2.54-77.633 16.8-100.8 18.912-30.72 55.64-58.39 104-63.2zm-83.201 180.8c14.318 30.215 52.874 56.83 90.4 56.801 56.58-0.044 102.72-40.28 106.4-95.2 3.997-59.624-32.854-103.42-95.2-113.6 2.479-6.001 0.396-19.471 2.399-24.8-10.781-0.791-15.278-0.193-24.8 0.8 6.435 9.055 1.577 15.664-2.4 24 8.663 0.256 14.041-1.944 23.2 0-15.672 0.235-25.372 1.707-38.4 4.8-4.161-1.706-3.729-8.004-9.6-8 0.531 4.798-0.725 7.808-0.8 12-5.348 2.385-9.536 5.931-15.2 8 1.904-3.163 6.854-3.279 8.8-6.4-3.665-6.735-6.715-14.085-10.4-20.8-8.236 2.965-15.105 7.295-20 13.6 7.721 2.933 13.979 7.943 10.4 20 4.871-0.729 5.806-5.394 10.4-6.4-12.144 9.723-23.059 20.674-32 33.6 1.026-1.051 1.026-2.949 0-4-4.706 1.914-10.317-0.413-15.2-0.8-2.17-2.363-2.499-6.568-4.8-8.8-2.527 4.939-7.179 7.754-7.2 15.2 4.614-1.161 7.158 0.354 12.8 0 2.764 3.103 2.745 8.988 6.4 11.2 4.012-2.654 3.604-9.729 8-12-18.412 25.98-16.629 72.47-3.201 100.8zm186.4-96.8c6.522-3.877 11.721-9.079 20-11.2-1.617-5.583-3.651-10.749-8-13.6-3.877 6.256-11.177 9.089-19.2 11.2 0.79 6.14 5.33 8.54 7.2 13.6zm-39.2-42.4c2.458-7.942 7.572-13.228 11.2-20-1.922-0.745-2.118-3.215-5.6-2.4-1.982 8.951-7.851 14.016-12 20.8 2.42 0.25 2.86 2.48 6.4 1.6zm50.4 80c0.606 6.06 1.08 12.253 0.8 19.199 5.638-1.047 15.486 0.26 23.2 1.601 1.313-5.464 1.313-16.136 0-21.601-6.65 3.21-17.36-0.56-24 0.8zm-233.6 26.4c5.589-3.027 19.666-1.22 24-0.8-0.878-7.837-0.565-13.646 0-21.6-8.862 3.308-17.73 6.953-24-0.801-1.395 6.06-1.205 17.11 0 23.2zm216 47.2c8.383 2.284 12.287 9.047 19.2 12.8 4.382-6.285 9.574-11.759 11.2-20.8-6.275-4.391-14.699-6.634-20-12-2.81 7.33-7.95 12.32-10.4 20zm-183.2-19.2c-9.438 0.626-15.001 7.815-22.4 8 2.009 7.059 6.262 11.872 8.8 18.4 4.66 0.638 9.288-2.95 12.8-0.8-1.747 3.587-5.721 4.945-7.2 8.8 1.157 1.51 1.787 3.546 4.8 3.2 4.215-6.452 10.848-10.485 13.6-18.4-8.273 1.103-13.42 4.67-20.8 4 4.938-3.595 11.172-5.895 16.8-8.8-0.556-6.38-4.533-9.33-6.4-14.4zm44.8 49.6c-3.801-2.065-5.549-6.185-11.2-6.4-1.804 8.863-8.672 12.662-12.8 19.2 5.152 2.848 9.29 6.711 15.2 8.8 4.061-2.339 5.677-7.123 10.4-8.8-0.51 5.09-3.174 8.026-3.2 13.6 2.525-0.392 2.825 1.442 5.6 0.801 0.233-8.112 5.457-15.239 4-22.4-7.404 2.729-10.796 9.47-17.6 12.8 3.07-5.99 6.15-11.98 9.6-17.6zm109.6 22.4h2.4c0.421-4.707-3.251-9.522-1.601-12.8 4.417 1.184 5.709 5.491 9.601 7.2 2.524-0.142 4.771-0.562 4.8-3.2-7.606-3.593-11.319-11.081-19.2-14.399 1.05 8.02 0.97 17.17 4 23.2zm-68 14.4c3.56-0.626 4.802 1.065 8 0.8 2.904-3.495 2.301-10.499 5.601-13.6 2.932 2.667 3.662 7.537 4 12.8h7.199c-4.013-6.92-4.563-17.303-9.6-23.2-5.541 4.059-4.702 14.498-9.6 19.2-0.023-6.957-0.496-14.362 1.6-19.2-1.327-1.34-4.697-0.637-7.2-0.8 0.05 9.49 0.22 18.19 0 24z" fill="#F1E5C8"/>
		<path d="m98.009 116.53c0.022-0.778 0.979-0.621 1.6-0.8-6.488 4.979-14.393 8.541-20 14.4 2.814-4.66 11.587-10.27 18.4-13.6z" fill="#C3A204"/>
		<path d="m28.409 157.33c0.834 0.812-2.594 6.43 0.8 8 1.046-1.687 5.506-9.812 0.8-9.6 3.285-4.715 4.508-11.492 10.4-13.6 0.067 1.267-0.384 3.052 0.8 3.2 3.619-0.915 1.31-7.757 6.4-7.2 1.176-3.042-3.576-0.157-2.4-3.2 5.392-2.342 7.495-7.972 12-11.2 0.614 8.541-6.245 18.681-8 29.6-4.572-0.262-2.079-5.004-3.2-7.2-6.689 1.57-1.923 10.977 3.2 10.4-2.584 4.616-7.498 6.902-12 9.6-2.071-2.471 0.236-5.688 0-8.8-4.088-0.354-1.808 5.659-2.4 8.8 0.643 2.024 3.293 2.041 4.8 3.2-1.526 6.474-3.022 12.978-8.8 15.2-0.579-3.539 2.873-8.744-0.8-10.4-0.303 3.176-4.175 11.689 1.6 13.6 0.471 2.872-0.93 3.871-1.6 5.6-1.569-6.164-8.797-6.669-8.8-14.4-6.266 2.548 0.863 8.854 4 9.6 1.511 5.585 4.185 13.294-2.4 15.2-0.045-2.622-2.275-3.058-1.6-6.4-4.118 0.53-1.926 6.02-0.8 8 3.646-0.123 3.139-0.661 6.4 0-0.134 2.266-1.466 3.333-1.6 5.6-1.435 0.102-1.688-0.979-3.2-0.8-0.401 3.705 2.184 7.434 0 10.399h-3.2c-2.262-1.923 1.102-4.837-0.8-6.399-6.1 1.879-2.989 12.179 4.8 9.6 0.44 7.373 0.138 14.005-3.2 17.601 5.821 8.578 3.208 25.592 7.2 36-2.1 2.305-4.014-2.341-3.2-5.601-1.5 0.899-1.7 3.101-3.2 4-3.727-0.273-3.457-4.543-5.6-6.399-0.928 0.671-2.145 1.055-4 0.8-1.918-1.548-2.443-4.49-5.6-4.8-2.974-20.384-1.567-44.326 3.2-61.601h3.2c-1.114-20.74 9.2-32.28 16.8-46.4zm-15.2 52.8c6.955 0.346 3.2-11.413 1.6-14.4-2.422 4.69 1.451 10.88-1.6 14.4zm6.4 23.2c-0.454-2.48 0.217-6.084-2.4-6.4-1.021 1.912-1.693 4.174-5.6 3.2-2.134-2.133-0.026-8.508-4-8.8-2.242 9.08 4.818 13.3 12 12zm-1.6 11.2c-2.345-2.454-2.982-6.617-7.2-7.199-0.285 5.11 3.316 8.71 7.2 7.2zm-9.6 12.8c0.379-2.513-0.998-3.27-2.4-4-1.98 2.074 0.778 3.923 0 7.199 1.887 1.958 1.488-1.194 4-0.8-0.379 2.513 0.998 3.27 2.4 4 2.782-2.608-3.655-7.779 0.8-9.6 1.114 1.019 0.348 3.919 2.4 4 1.398-4.586 0.77-4.607 5.6-3.2-1.646-6.354-13.151-2.849-11.2-12.8-2.693 4.68 1.728 11.85-1.6 15.2z" fill="#C3A204"/>
		<path d="m271.61 136.53c2.29 0.91 3.89 2.51 4.8 4.8-2.26-0.94-4.03-2.37-4.8-4.8z" fill="#C3A204"/>
		<path d="m71.609 137.33c-5.25 6.216-11.613 11.32-16 18.4 2.062-6.21 9.306-14.15 16-18.4z" fill="#C3A204"/>
		<path d="m141.21 149.33c-4.662 6.564-13.297 9.058-20 14.4-14.077 11.22-24.115 26.547-32 44.8-14.97 42.079 4.788 86.206 28 106.4 47.778 41.567 132.12 26.994 156.8-34.4 27.224-67.708-21.596-139.5-92-138.4-11.854 0.186-19.259 3.657-28.8 3.2 40.835-13.943 81.317 2.151 104.8 26.4 14.14 14.6 25.92 39.966 26.4 66.4 1.045 57.531-41.491 106.55-107.2 104-49.469-1.92-90.338-41.756-95.2-92-4.902-50.65 26.18-83.84 59.2-100.8z" fill="#F1E5C8"/>
		<path d="m278.81 144.53c3.809 0.736 8.06 7.931 12 11.2-3.56-0.98-8.11-7.88-12-11.2z" fill="#C3A204"/>
		<path d="m227.61 155.73c-3.054 3.268-8.038-0.611-11.2 3.2 3.562 2.838 14.543-1.743 16.8 2.4-3.732 0.411-9.469-2.967-10.399 1.6 3.385 3.015 15.1-2.3 16 3.2h-9.601c-0.986 7.084 13.325-1.815 14.4 4.8-1.732 1.476-7.681-1.663-9.601 0 2.162 4.507 8.644 2.234 12.801 3.2-2.749 1.475-5.787 1.427-8.801 0.8-0.612 7.012 12.048 0.753 15.2 4-1.841 2.849-6.083 0.197-8 1.6 1.385 4.787 9.068-0.134 12 4-1.256 2.918-9.066-2.748-10.399 2.4 3.704 2.695 14.833-2.033 15.199 4-2.492 1.755-8.439-1.879-12 1.6 3.528 2.154 7.973 1.115 14.4 1.6-0.984 4.349-11.743-1.077-12.8 3.2 5.691 2.469 9.408 0.031 15.2 2.4-3.231 3.291-8.149-0.071-13.601 0.8v2.4c5.336 2.038 9.505 0.611 16 0.8-2.279 3.8-6.827 1.541-12.8 2.4 0.555 5.312 11.361 0.371 14.4 3.2-3.325 1.892-10.258 1.161-12.801 1.6 0.271 6.13 14.131-1.33 14.4 4.8-4.888 0.944-10.027-0.673-12 1.601 2.826 2.818 7.883-0.938 12.8 0.8-0.419 3.047-4.711 2.223-8 2.399-0.436 5.28 8.54-1.668 8.8 4h-10.399c0.559 6.141 8.544 0.706 11.2 3.2-0.772 1.629-3.072 1.728-5.601 1.601-0.069 3.536 6.224 0.71 5.601 4.8-5.327 0.958-9.1-0.953-12 1.6 2.42 1.847 8.251 0.282 12 0.8-2.56 3.764-8.611-0.732-12 2.4 6.169 1.844 8.889-0.901 13.6 2.4-0.851 1.549-4.608 0.191-4.8 2.399 0.579 1.82 4.562 0.238 4 3.2-2.468 0.116-10.95 0.253-13.601 0-0.721 6.321 9.328 1.872 13.601 3.2-0.264 5.336-10.904 0.296-13.601 3.2 1.913 5.328 9.833-1.559 12.801 2.399-1.902 2.364-9.298-0.764-11.2 1.601 1.126 5.195 9.302-1.424 11.2 3.199-3.272 0.194-7.713-0.778-8.801 1.601 1.445 2.609 2.936 0.21 6.4 0.8 1.989 1.806-14.463 2.327-12.8 4 1.711 1.721 5.436-0.282 8.8 1.6h-9.6c-0.129 6.433 8.286 1.154 11.199 3.2-0.205 1.662-3.515 0.219-4 1.601-0.85 2.983 3.001 1.266 2.4 4-5.232-0.433-9.107 0.493-13.6 0.8-2.569 1.533-0.498 3.066-2.4 5.6 2.165 2.368 9.835-0.768 12 1.601-1.926 4.474-14.023-1.224-16 3.199 3.413 3.169 7.909 0.506 12.8 1.601-2.904 4.028-14.695-0.828-17.6 3.2-0.374 1.707 1.143 1.523 2.399 1.6-0.675 1.725-4.124 0.676-4.8 2.4 3.938 4.061 10.872-1.295 15.2 1.6-5.501 3.191-14.979 1.411-20.8 2.4-0.805 2.662-2.42 4.513-6.4 4 2.112 4.82 12.525 1.341 18.4 2.399-4.239 6.836-20.137-2.358-24 4 5.938 1.947 11.108-0.274 17.6 0.801-2.73 5.172-13.727-0.879-20.8 2.399-2.396 0.526 0.765 1.71 0 3.2-2.419 0.248-6.222-0.889-6.4 1.6 0.192 2.475 6.584-1.25 5.601 2.4-5.928 0.473-14.572-1.771-16 3.2-14.079-0.469-30.549-1.506-46.4-2.4-1.121 0.282-0.069 1.408 0.8 1.601-6.974 1.072-12.058 0.661-18.4 0 1.652-4.394 8.684 1.268 11.2-1.601-3.113-5.317-14.712 2.09-17.6-4 3.652 0.348 8.809-0.809 11.2 0.8-0.901-6.196-12.668-1.009-18.4-4 2.904-2.569 6.392 0.415 9.6-1.6-1.692-3.81-12.04-1.752-14.4-2.4 0.098-3.369 6.139-0.794 8.8-1.6-2.88-7.691-15.391 1.651-16.8-5.6 4.353-0.41 7.825 2.129 10.4-0.801-4.843-3.067-11.842 0.718-15.2-3.199 0.566-2.901 5.83-1.104 8.8-1.601-0.95-2.517-5.438-1.495-4-6.4-4.631 0.098-9.323 0.257-12-1.6-0.095-3.295 6.258-0.143 7.2-2.4-0.984-2.749-4.701-2.766-8-3.199-2.135-1.42 4.687-0.583 6.4-0.801-1.506-3.947-7.938-2.121-10.4-3.199-1.736-1.665 0.097-2.586 0.8-4-0.081-2.053-2.981-1.286-4-2.4-18.432-49.626 10.254-105.49 48.8-119.2v8.8c15.394 17.673 20.985 45.149 31.2 68-5.852 13.494 3.703 25.555 17.601 19.2 9.938-8.649 1.883-23.035-8-25.6-5.34-24.269-21.801-40.754-21.601-68-0.628-3.638-3.864-4.669-4-8.8 8.442-4.023 22.242-3.499 32-4-0.738 2.995-6.424 1.042-9.6 1.6v3.2c2.539-2.89 11.945 1.604 17.6-1.6 0.344 1.256 2.517 0.684 1.601 3.2 5.235 0.098 11.522-0.856 12 4 6.91-0.37 11.35 0.82 16.8 0zm-40 1.6c0.093 2.041 0.15 4.116 2.399 4 0.871-1.796 3.85-1.484 3.2-4.8-2.13 0.01-4.57-0.3-5.6 0.8zm16 11.2c-2.317 0.448 1.227 1.248 0.8 2.4-2.433-0.032-5.266-0.465-4.8 2.4 4.343 0.61 6.199-1.267 10.399-0.8-1.814-2.809 1.688-2.631 0-4.8-2.31 0.1-5.24-0.43-6.4 0.8zm-6.4 11.2c-0.257-3.457 3.951-2.449 4-5.6-8.54-2.62-13.27 5.41-4 5.6zm-69.6 3.2v-4.8c-5.37-1.84-5.37 6.64 0 4.8zm105.6 12c1.125-3.525-2.633-2.167-4.8-2.4-0.19 4.25 2.97 0.18 4.8 2.4zm-101.6 5.6h4.8c1.306-1.294-0.714-3.346 0-6.4h-2.4c0.2 3.14-2.89 2.97-2.4 6.4zm81.6 4.8c2.261 0.661 2.072-1.127 4-0.8-0.072-2.989-0.896-2.28 0-4.8-2.67 0.54-4.34 2.06-4 5.6zm-102.4 5.6c7.554 0.888 8.724-4.61 10.4-9.6-5.24 1.43-8.98 4.36-10.4 9.6zm103.2-0.8c3.445 2.154 7.27 3.931 8.801 8 2.438 0.039 4.072-0.727 4.8-2.4-2.116-0.944-2.485-0.692-1.601-3.2-3.76-1.039-6.53-3.069-8-6.399h-4v4zm-20 3.2c-0.049-3.151-4.257-2.144-4-5.601h-3.199c0.23 3.77 3.78 7.58 7.2 5.6zm-47.2 4h4c-0.667-3.601 3.764-2.103 2.4-6.4-1.513 0.18-1.765-0.901-3.2-0.8-1.13 2.34-3 3.94-3.2 7.2zm-40.8 4.8c8.438 3.073 9.48-3.407 8.8-10.4h-7.2c0.28 4.29-2.38 5.63-1.6 10.4zm144 3.2c-0.016-2.385 0.075-4.875-2.399-4.801-1.33 1.43-1.68 6.38 2.4 4.8zm-117.6 0.8c0.58 2.446-1.38 2.353-0.8 4.8 4.926 4.684 9.849-4.437 8-8.8-2.98 0.75-2.97 4.5-7.2 4zm97.6-0.8c0.604 3.863-7.073 4.125-2.399 7.199-4.724 0.284-6.279 4.875-4 8h4c0.25-3.735 2.92-2.668 4.8-3.199-0.496-4.103-0.496-3.898 0-8 1.78 1.196 4.348-2.168 5.6-4-2.17-1.93-4.44 0.88-8 0zm20 4c0.241-2.108-1.107-2.626-3.199-2.4-0.8 2.67 1.11 2.63 3.2 2.4zm12.8 0.8c-1.029 2.524 6.629 2.524 5.6 0-0.5-1.71-4.92-0.75-5.6 0zm-17.6 1.6c-0.076 3.543 1.438 5.496 5.601 4.8 0.082-2.482-2.518-2.282-1.601-5.6-1.86-0.25-3.07 0.13-4 0.8zm-104 8v4c5.27-0.597 9.976-1.758 10.4-7.2h-5.6c-0.79 2.57-1.9 4.81-4.8 3.2zm129.6 2.4h-8c-0.63 5.04 7.11 2.53 8 0zm-130.4 5.6c3.605 0.139 7.323 0.391 7.2-3.2h-7.2v3.2zm-1.6 1.6c-0.726 6.943 4.7 10.812 10.4 8.8-0.998-4.098 0.249-6.896 0-9.601-3.69 0.05-7.82-0.35-10.4 0.8zm55.2 17.6c5.688 5.248 9.531-4.018 8.801-10.4-4.188 0.654-0.364-1.702-2.4-3.199h-2.4c-0.49 3.72-0.9 10.31-4 13.6zm71.2-5.6h-4c-1.39 3.83 5.1 2.91 4 0zm-41.6 18.4c1.703 0.493 9.409 1.173 8.8-3.2-2.32 1.68-8.69-0.69-8.8 3.2zm7.2-5.6c0.131-2.265-4.932 0.665-4.801-1.601 1.258-0.076 2.774 0.107 2.4-1.6-3.414-0.771-7.658 0.523-7.2-5.6-1.972-0.105-3.854-0.121-4.8 0.8v3.2c3.872 0.927 6.209 3.391 6.4 8 2.69-1.04 6.83-0.64 8-3.2zm-64.8 8.8v2.4c1.068 1.142 4.533 1.142 5.601 0-0.6-3.44-3.16-4.66-5.6-2.4zm-4.8-14.4c-4.167 0.1-5.64 2.895-5.6 7.2 3.701 2.132 5.93 3.425 7.2 6.4 2.432 0.032 5.265 0.465 4.8-2.4-2.579-1.609-4.738-5.431-7.2-4.8 3.28-0.9 0.19-3.54 0.8-6.4zm-37.6 5.6c0.805 3.994 5.099 4.501 8.8 5.6-5.046-0.779-3.349 5.186-4 8.8 3.558 2.122 8.996 0.198 8-4.8-3.15-0.372-4.155 1.678-5.6-0.8h5.6c-0.78-2.153-1.764-4.103-2.4-6.4-3.342 0.844-5.42-1.685-7.2 0-0.183-1.417 0.806-4.006-1.6-3.199-0.18 0.63-0.67 0.93-1.6 0.8zm135.2 2.4c2.656-0.543 5.669-0.73 6.399-3.199h-8c-0.92 2.52 1.25 1.95 1.6 3.2zm-48.8 26.4c5.238-0.874 0.799-7.396 0-9.6-2.305 0.095-5.236-0.438-6.399 0.8 0.176-4.537-2.792-5.182-4-6.4-2.34 7.79 7.31 10.22 10.4 15.2zm-50.4-13.6c-1.135 6.372 2.557 11.608 8 8.8-0.336-5.077-5.092-5.601-2.4-9.601-2.77-0.64-3.08 1.19-5.6 0.8zm24 8.8c0.351-2.797-2.544-6.461-4.8-4 1.65 1.29 0.63 5.24 4.8 4zm0.8 20c0.076-3.589 4.09-5.502 0.8-8 1.394 0.06 2.488-0.179 3.2-0.8-0.439-3.191-0.439-2.409 0-5.601-0.491-1.108-3.08-0.12-3.2-1.6 1.257-0.076 2.774 0.107 2.4-1.6-0.112-2.289-3.337-1.464-5.601-1.601 3.27 8.31-13.92 17.95 2.4 19.2zm-37.6-4c7.369 0.436 9.68-4.188 10.4-10.4-4.92 2.01-10.77 3.1-10.4 10.4z" fill="#C3A204"/>
		<path d="m54.009 156.53c-3.548 7.388-11.459 17.337-15.2 27.2 1.396-9.54 9.851-18.95 15.2-27.2z" fill="#C3A204"/>
		<path d="m290.81 158.13c7.61 4.659 14.272 17.192 18.399 28-6.29-9.17-11.55-19.38-18.4-28z" fill="#C3A204"/>
		<path d="m27.609 227.73c-1.246-7.216 2.976-26.25 5.6-30.4 1.001-1.583-1.296 8.054-3.2 12 0.137 7.07-1.981 11.89-2.4 18.4z" fill="#C3A204"/>
		<path d="m26.81 252.53c9.537 64.063 44.21 102.99 96.8 124-16.054-1.821-30.19-13.307-41.6-22.4-27.629-22.02-51.431-54.23-55.2-101.6z" fill="#C3A204"/>
		<path d="m40.409 294.13c3.099-0.273 11.927 9.879 16 1.6 1.064 4.403-0.161 6.06-0.8 10.4-7.021-2.04-12.064-6.07-15.2-12z" fill="#C3A204"/>
		<path d="m279.61 296.53c3.082 0.665 9.27 5.121 13.6 7.2-3.89 0.14-10.03-4.36-13.6-7.2z" fill="#F1E5C8"/>
		<path d="m280.41 282.93c5.301 5.366 13.725 7.609 20 12-1.626 9.041-6.818 14.515-11.2 20.8-6.913-3.753-10.817-10.516-19.2-12.8 2.45-7.68 7.59-12.67 10.4-20zm16 15.2c-4.686-3.048-10.052-5.415-15.2-8 2.85 4.35 10.35 8.31 15.2 8zm-3.2 5.6c-4.33-2.079-10.518-6.535-13.6-7.2 3.57 2.84 9.71 7.34 13.6 7.2z"/>
		<path d="m298.01 320.53c0.618 1.453-1.835 6.67-4.8 7.199 0.75-3.25 3.71-4.28 4.8-7.2z" fill="#C3A204"/>
		<path d="m291.61 328.53c1.201 2.037-3.352 5.154-4 8-1.58-2.41 3.59-4.91 4-8z" fill="#C3A204"/>
		<path d="m79.609 335.73c2.102-1.265 4.112 4.395 4.8 7.2-4.148-1.762-4.842 0.535-8.8 0.8 0.102-1.435-0.979-1.688-0.8-3.199 2.516-0.917 1.944 1.256 3.2 1.6 1.101-1.08 3.768-4.69 1.6-6.4z" fill="#C3A204"/>
		<path d="m266.81 348.53c-1.999 5.74-12.348 10.048-17.601 15.199 1.9-5.83 13.13-9.27 17.6-15.2z" fill="#C3A204"/>
		<path d="m84.41 362.13c2.91 1.89 4.07 5.529 4.8 9.6h-4c-0.464 2.598 0.545 3.722 0.8 5.601-3.368 1.181-3.569-4.893-6.4-1.601 0.193-2.75 1.295-11.49 4.8-13.6z" fill="#C3A204"/>
		<path d="m246.81 363.73c2.001 1.54-3.288 2.525-4 4-1.8-1.34 2.79-3.02 4-4z" fill="#C3A204"/>
		<path d="m219.61 377.33c2.704-2.244 12.012-5.92 12.8-4.8-4.87 0.99-7.01 4.72-12.8 4.8z" fill="#C3A204"/>
		<path d="m126.01 377.33c4.189 0.63 8.021 4 12.8 1.6-1.489 3.622 2.875 1.391 3.2 3.2 24.436 4.476 55.009 1.823 76-4-24.25 9.75-68.66 12.37-92-0.8z" fill="#C3A204"/>
		<path d="m93.209 187.73c-4.396 2.271-3.988 9.346-8 12-3.655-2.212-3.636-8.097-6.4-11.2-5.643 0.354-8.187-1.161-12.8 0 0.021-7.446 4.673-10.261 7.2-15.2 2.301 2.232 2.629 6.438 4.8 8.8 4.883 0.387 10.494 2.714 15.2 0.8 1.026 1.051 1.026 2.949 0 4 8.941-12.926 19.856-23.877 32-33.6-4.594 1.006-5.529 5.67-10.4 6.4 3.579-12.057-2.679-17.067-10.4-20 4.895-6.305 11.764-10.635 20-13.6 3.685 6.715 6.735 14.065 10.4 20.8-1.946 3.121-6.896 3.237-8.8 6.4 5.665-2.069 9.852-5.615 15.2-8 0.075-4.192 1.331-7.202 0.8-12 5.871-0.004 5.439 6.294 9.6 8 13.028-3.093 22.728-4.565 38.4-4.8-9.159-1.944-14.537 0.256-23.2 0 3.977-8.337 8.834-14.946 2.4-24 9.521-0.993 14.019-1.59 24.8-0.8-2.004 5.329 0.079 18.799-2.399 24.8 62.346 10.184 99.197 53.976 95.2 113.6-3.683 54.92-49.82 95.156-106.4 95.2-37.527 0.029-76.082-26.586-90.4-56.801-13.429-28.33-15.212-74.82 3.199-100.8zm88.001-58.4c0.2-4.936 3.021-11.84 0-15.2-2.95 3.49-5.12 12.35 0 15.2zm6.4 4c-0.383-5.844 3.025-16 0-19.2-0.84 6.25-3.85 15.02 0 19.2zm-16 0.8h4.8c-0.547-2.386-0.971-4.896-3.2-5.6-0.67 1.73-2.07 2.73-1.6 5.6zm-43.2 12.8c-2.651-5.616-3.546-12.987-8.8-16-4.6 8.66 2.1 14.03 8.8 16zm-12.8-7.2c0.799-2.076 1.406-5.358-0.8-6.4-3.75 1.66-5.33 6.07 0.8 6.4zm-33.601 110.4c4.862 50.244 45.731 90.08 95.2 92 65.709 2.551 108.24-46.469 107.2-104-0.48-26.435-12.261-51.8-26.4-66.4-23.482-24.249-63.965-40.343-104.8-26.4 9.541 0.457 16.946-3.015 28.8-3.2 70.404-1.1 119.22 70.692 92 138.4-24.684 61.395-109.02 75.968-156.8 34.4-23.212-20.194-42.97-64.321-28-106.4 7.885-18.252 17.923-33.58 32-44.8 6.703-5.342 15.338-7.836 20-14.4-33.02 16.96-64.102 50.15-59.201 100.8zm63.201-86.4c15.955 16.845 18.852 46.749 32 66.4-3.067-23.258-23.817-42.754-19.2-71.2-9.28-0.32-7.996-11.204-13.6-15.2 0.17 6.76 1.29 12.58 0.8 20zm65.6-8c-0.478-4.856-6.765-3.902-12-4 0.916-2.516-1.257-1.944-1.601-3.2-5.654 3.204-15.061-1.29-17.6 1.6v-3.2c3.176-0.558 8.861 1.395 9.6-1.6-9.758 0.501-23.558-0.023-32 4 0.136 4.131 3.372 5.162 4 8.8-0.2 27.246 16.261 43.732 21.601 68 9.883 2.564 17.938 16.95 8 25.6-13.897 6.354-23.452-5.706-17.601-19.2-10.215-22.851-15.806-50.327-31.2-68v-8.8c-38.546 13.711-67.232 69.574-48.8 119.2 1.019 1.114 3.919 0.348 4 2.4-0.703 1.414-2.536 2.335-0.8 4 2.462 1.078 8.894-0.748 10.4 3.199-1.713 0.218-8.535-0.619-6.4 0.801 3.299 0.434 7.016 0.45 8 3.199-0.942 2.258-7.295-0.895-7.2 2.4 2.677 1.856 7.369 1.697 12 1.6-1.438 4.905 3.05 3.884 4 6.4-2.97 0.497-8.234-1.301-8.8 1.601 3.357 3.917 10.357 0.132 15.2 3.199-2.575 2.93-6.047 0.391-10.4 0.801 1.409 7.251 13.92-2.092 16.8 5.6-2.661 0.806-8.702-1.77-8.8 1.6 2.36 0.648 12.708-1.409 14.4 2.4-3.208 2.015-6.696-0.97-9.6 1.6 5.732 2.991 17.499-2.196 18.4 4-2.392-1.608-7.548-0.452-11.2-0.8 2.888 6.09 14.487-1.317 17.6 4-2.517 2.868-9.548-2.793-11.2 1.601 6.342 0.661 11.426 1.072 18.4 0-0.869-0.192-1.92-1.318-0.8-1.601 15.852 0.895 32.321 1.932 46.4 2.4 1.428-4.972 10.072-2.728 16-3.2 0.983-3.65-5.408 0.074-5.601-2.4 0.179-2.488 3.981-1.352 6.4-1.6 0.765-1.49-2.396-2.674 0-3.2 7.073-3.278 18.069 2.772 20.8-2.399-6.491-1.075-11.661 1.146-17.6-0.801 3.863-6.358 19.761 2.836 24-4-5.875-1.059-16.288 2.421-18.4-2.399 3.98 0.513 5.596-1.338 6.4-4 5.82-0.989 15.299 0.791 20.8-2.4-4.328-2.895-11.262 2.461-15.2-1.6 0.676-1.725 4.125-0.676 4.8-2.4-1.257-0.076-2.773 0.107-2.399-1.6 2.904-4.028 14.695 0.828 17.6-3.2-4.891-1.095-9.387 1.568-12.8-1.601 1.977-4.423 14.074 1.274 16-3.199-2.165-2.368-9.835 0.768-12-1.601 1.902-2.533-0.169-4.066 2.4-5.6 4.492-0.307 8.367-1.232 13.6-0.8 0.601-2.734-3.25-1.017-2.4-4 0.485-1.382 3.795 0.062 4-1.601-2.913-2.046-11.328 3.232-11.199-3.2h9.6c-3.364-1.882-7.089 0.121-8.8-1.6-1.663-1.673 14.789-2.194 12.8-4-3.465-0.59-4.955 1.81-6.4-0.8 1.088-2.379 5.528-1.406 8.801-1.601-1.898-4.623-10.074 1.996-11.2-3.199 1.902-2.364 9.298 0.764 11.2-1.601-2.968-3.958-10.888 2.929-12.801-2.399 2.696-2.904 13.337 2.136 13.601-3.2-4.272-1.328-14.321 3.121-13.601-3.2 2.65 0.253 11.133 0.116 13.601 0 0.562-2.962-3.421-1.38-4-3.2 0.191-2.208 3.949-0.851 4.8-2.399-4.711-3.302-7.431-0.557-13.6-2.4 3.389-3.133 9.44 1.363 12-2.4-3.749-0.518-9.58 1.047-12-0.8 2.9-2.553 6.673-0.642 12-1.6 0.623-4.09-5.67-1.264-5.601-4.8 2.528 0.127 4.828 0.028 5.601-1.601-2.656-2.494-10.642 2.94-11.2-3.2h10.399c-0.26-5.668-9.235 1.28-8.8-4 3.289-0.177 7.581 0.647 8-2.399-4.917-1.737-9.974 2.019-12.8-0.8 1.973-2.273 7.112-0.656 12-1.601-0.27-6.13-14.13 1.33-14.4-4.8 2.543-0.438 9.476 0.292 12.801-1.6-3.039-2.829-13.846 2.112-14.4-3.2 5.973-0.859 10.521 1.399 12.8-2.4-6.495-0.188-10.664 1.238-16-0.8v-2.4c5.451-0.871 10.369 2.491 13.601-0.8-5.792-2.369-9.509 0.069-15.2-2.4 1.057-4.277 11.815 1.149 12.8-3.2-6.428-0.485-10.872 0.554-14.4-1.6 3.561-3.479 9.508 0.155 12-1.6-0.366-6.033-11.495-1.305-15.199-4 1.333-5.148 9.144 0.519 10.399-2.4-2.932-4.134-10.615 0.787-12-4 1.917-1.403 6.159 1.249 8-1.6-3.152-3.247-15.812 3.012-15.2-4 3.014 0.627 6.052 0.675 8.801-0.8-4.157-0.966-10.639 1.307-12.801-3.2 1.92-1.663 7.868 1.476 9.601 0-1.075-6.616-15.387 2.284-14.4-4.8h9.601c-0.9-5.5-12.615-0.185-16-3.2 0.931-4.567 6.667-1.189 10.399-1.6-2.257-4.143-13.238 0.438-16.8-2.4 3.162-3.812 8.146 0.067 11.2-3.2-5.45 0.82-9.89-0.37-16.8 0zm-92-1.6c2.462 0.596 1.538-2.196 4-1.6-0.183-2.75-2.381-3.486-4.8-4 0.01 2.13-0.3 4.57 0.8 5.6zm-48 28h4c-0.276-1.858-0.518-3.749-3.2-3.2 0.059 1.4-0.179 2.49-0.8 3.2zm11.199 8c1.47 1.197 1.995 3.338 4 4 0.461-1.673 1.983-2.284 1.6-4.8-1.078-1.09-5.585-1.52-5.6 0.8zm92.801 49.6c-1.075 12.823 18.776 12.937 17.601 0-0.544-5.983-5.603-7.688-9.6-7.2-6.84 0.84-7.79 4.69-8 7.2zm84 42.4c3.256-0.846 3.789 0.225 8 0 0.24-2.85-8.1-2.15-8 0zm-11.2 13.6c4.641-0.67 8.364 2.145 10.399-1.6-3.9 0.1-8.59-0.58-10.4 1.6zm-6.4 8.8c2.956-0.511 7.97 1.035 9.601-0.801-0.5-0.7-13.3-0.03-9.6 0.8zm-18.4 13.6c4.278-0.521 10.65 1.051 13.6-0.8-3.24-1.9-13.47-0.34-13.6 0.8zm-13.6 7.2c4.868-0.833 9.86 2.813 13.601-0.8-3.86 0.43-13.69-0.91-13.6 0.8zm-39.2 4c14.577-1.109 29.406 2.836 41.601-0.8-13.97-1.03-32-2.31-41.6 0.8zm13.6 3.2c-13.624 0.035-1.424 2.062 4.8 0-2.69-1.25-2.75 0-4.8 0z"/>
		<path d="m54.009 232.53c6.27 7.754 15.138 4.108 24 0.801-0.565 7.954-0.878 13.763 0 21.6-4.334-0.42-18.411-2.228-24 0.8-1.205-6.09-1.395-17.14 0-23.2zm17.6 8.8c0.275 1.857 0.518 3.749 3.2 3.199 0.56-2.462 0.56-1.537 0-4-1.512-0.18-1.765 0.9-3.2 0.8zm-15.2 7.2c6.092 2.06 9.088-0.746 16.8 0-1.326-7.59-14.344-4.61-16.8 0z"/>
		<path d="m149.21 248.53c0.249 2.704-0.998 5.503 0 9.601-5.7 2.012-11.125-1.856-10.4-8.8 2.58-1.15 6.71-0.75 10.4-0.8z"/>
		<path d="m160.41 274.93c2.462-0.631 4.621 3.19 7.2 4.8 0.465 2.865-2.368 2.433-4.8 2.4-1.27-2.976-3.5-4.269-7.2-6.4-0.04-4.306 1.433-7.101 5.6-7.2-0.61 2.86 2.48 5.5-0.8 6.4z"/>
</g>
<metadata><rdf:RDF><cc:Work><dc:format>image/svg+xml</dc:format><dc:type rdf:resource="http://purl.org/dc/dcmitype/StillImage"/><cc:license rdf:resource="http://creativecommons.org/licenses/publicdomain/"/><dc:publisher><cc:Agent rdf:about="http://openclipart.org/"><dc:title>Openclipart</dc:title></cc:Agent></dc:publisher><dc:title>old pocketwatch</dc:title><dc:date>2007-08-29T04:46:43</dc:date><dc:description>a pocket watch so old it doesn't have a minute hand from an illustration from Physics for Entertainment by Yakov Isidorovich Perelman from archive.org</dc:description><dc:source>http://openclipart.org/detail/5055/old-pocketwatch-by-johnny_automatic</dc:source><dc:creator><cc:Agent><dc:title>johnny_automatic</dc:title></cc:Agent></dc:creator><dc:subject><rdf:Bag><rdf:li>clip art</rdf:li><rdf:li>clipart</rdf:li><rdf:li>externalsource</rdf:li><rdf:li>image</rdf:li><rdf:li>media</rdf:li><rdf:li>png</rdf:li><rdf:li>public domain</rdf:li><rdf:li>svg</rdf:li><rdf:li>time</rdf:li><rdf:li>timepiece</rdf:li><rdf:li>watch</rdf:li></rdf:Bag></dc:subject></cc:Work><cc:License rdf:about="http://creativecommons.org/licenses/publicdomain/"><cc:permits rdf:resource="http://creativecommons.org/ns#Reproduction"/><cc:permits rdf:resource="http://creativecommons.org/ns#Distribution"/><cc:permits rdf:resource="http://creativecommons.org/ns#DerivativeWorks"/></cc:License></rdf:RDF></metadata></svg>
